<svg xmlns="http://www.w3.org/2000/svg" width="306.104" height="106.757" viewBox="-72 -72 229.578 80.068"><g stroke="#000" stroke-miterlimit="10" stroke-width=".4"><path fill="none" d="M-39.763-30.814h28.453v-31.298h-28.453Z"/><text x="-25.536" y="-29.391" stroke="none" font-family="cmsy10" font-size="10" transform="translate(-3.889 -14.572)">∙</text><path fill="none" d="M17.143-2.36h28.453v-31.3H17.143Z"/><text x="-25.536" y="-29.391" stroke="none" font-family="cmsy10" font-size="10" transform="translate(53.017 13.88)">∙</text><path fill="none" d="M74.048-30.814h28.453v-31.298H74.048Z"/><text x="-25.536" y="-29.391" stroke="none" font-family="cmsy10" font-size="10" transform="translate(109.922 -14.572)">∙</text><path fill="none" d="M-59.68-46.463h19.717"/><text x="-25.536" y="-29.391" stroke="none" font-family="cmmi10" font-size="10" transform="translate(-41.287 -13.996)">t</text><path fill="none" d="M-11.11-54.999H5.962v8.536h67.886"/><text x="-25.536" y="-29.391" stroke="none" font-family="cmmi10" font-size="10" transform="translate(28.895 -29.14)">v</text><path fill="none" d="M-11.11-37.927H.271v11.381h16.672"/><text x="-25.536" y="-29.391" stroke="none" font-family="cmmi10" font-size="10" transform="translate(22.093 -.697)">w</text><path fill="none" d="M-59.68-9.474h76.623"/><text x="-25.536" y="-29.391" stroke="none" font-family="cmmi10" font-size="10" transform="translate(-43.4 22.07)">u</text><path fill="none" d="M45.796-26.546h11.38v-11.38h16.672"/><text x="-25.536" y="-29.391" stroke="none" font-family="cmmi10" font-size="10" transform="translate(79.855 -.688)">x</text><path fill="none" d="M45.796-9.474h99.384"/><text x="-25.536" y="-29.391" stroke="none" font-family="cmmi10" font-size="10" transform="translate(174.25 22.07)">z</text><path fill="none" d="M102.701-46.463h42.48"/><text x="-25.536" y="-29.391" stroke="none" font-family="cmmi10" font-size="10" transform="translate(174.25 -15.891)">y</text><path fill="none" stroke-dasharray="3.0,3.0" d="M-51.144 3.598V-68.07a4 4 0 0 1 4-4h165.562a4 4 0 0 1 4 4V3.598a4 4 0 0 1-4 4H-47.144a4 4 0 0 1-4-4ZM122.418-72.07"/></g></svg>