<svg xmlns="http://www.w3.org/2000/svg" width="131.682" height="63.469" viewBox="-72 -72 98.762 47.601"><g stroke="#000" stroke-miterlimit="10" stroke-width=".4"><g stroke="none"><text x="-34.625" y="-79.974" stroke="none" font-family="cmsy10" font-size="10" transform="translate(-30.058 19.493)">E</text><text x="4.346" y="-79.974" stroke="none" font-family="cmsy10" font-size="10" transform="translate(-29.896 19.493)">C</text><text x="-34.625" y="-47.821" stroke="none" font-family="cmsy10" font-size="10" transform="translate(-30.408 19.493)">B</text></g><path fill="none" d="M-54.005-62.981h23.55"/><path fill="none" stroke-linecap="round" stroke-linejoin="round" d="M-32.335-65.381c.38 1.44 1.227 2.12 2.08 2.4-.853.28-1.7.96-2.08 2.4"/><text x="-42.367" y="-47.821" stroke="none" font-family="cmmi7" font-size="7" transform="translate(-2.737 -17.513)">F</text><path fill="none" d="M-61.597-56.621v17.2"/><path fill="none" stroke-linecap="round" stroke-linejoin="round" d="M-59.197-41.301c-1.44.38-2.12 1.227-2.4 2.08-.28-.853-.96-1.7-2.4-2.08"/><text x="-42.367" y="-47.821" stroke="none" font-family="cmmi7" font-size="7" transform="translate(-27.75 2.392)">P</text><g stroke-dasharray="2.79985,1.59991"><path fill="none" d="m-53.655-37.379 23.291-19.22"/><path fill="none" stroke-dasharray="none" stroke-linecap="round" stroke-linejoin="round" stroke-width=".39998" d="M-33.34-57.254c1.209.87 2.294.855 3.13.528-.48.758-.7 1.822-.076 3.174"/><g stroke="none"><text x="-42.367" y="-47.821" font-family="cmr7" font-size="7" transform="translate(2.865 7.841)">Ran</text><text x="-28.159" y="-46.816" font-family="cmmi5" font-size="5" transform="translate(2.865 7.841)">P</text><text x="-22.414" y="-47.821" font-family="cmmi7" font-size="7" transform="translate(2.865 7.841)">F</text><text x="-13.571" y="-47.821" font-family="cmr7" font-size="7" transform="translate(2.865 7.841)">or</text><text x="-3.766" y="-47.821" font-family="cmr7" font-size="7" transform="translate(2.865 7.841)">Lan</text><text x="9.582" y="-46.816" font-family="cmmi5" font-size="5" transform="translate(2.865 7.841)">P</text><text x="15.326" y="-47.821" font-family="cmmi7" font-size="7" transform="translate(2.865 7.841)">F</text></g></g></g></svg>