<svg xmlns="http://www.w3.org/2000/svg" width="91.983" height="71.755" viewBox="-72 -72 68.987 53.817"><g stroke="#000" stroke-miterlimit="10" stroke-width=".4"><g stroke="none"><g stroke="none"><text x="-23.911" y="-81.466" font-family="cmmi10" font-size="10" transform="translate(-38.48 20.576)">f</text><text x="-17.938" y="-85.095" font-family="cmsy7" font-size="7" transform="translate(-38.48 20.576)">¤</text><text x="-13.341" y="-81.466" font-family="cmmi10" font-size="10" transform="translate(-38.48 20.576)">e</text></g><text x="18.956" y="-81.466" stroke="none" font-family="cmmi10" font-size="10" transform="translate(-33.195 20.576)">e</text><text x="-23.911" y="-47.258" stroke="none" font-family="cmmi10" font-size="10" transform="translate(-33.013 20.576)">b</text><text x="18.956" y="-47.258" stroke="none" font-family="cmmi10" font-size="10" transform="translate(-33.51 20.576)">a</text></g><path fill="none" d="M-42.66-63.39h23.516"/><path fill="none" stroke-linecap="round" stroke-linejoin="round" d="M-21.024-65.79c.38 1.44 1.227 2.12 2.08 2.4-.853.28-1.7.96-2.08 2.4"/><text x="-35.829" y="-47.258" stroke="none" font-family="cmmi7" font-size="7" transform="translate(3.051 -19.846)">g</text><path fill="none" d="M-54.777-55.085v17.2"/><path fill="none" stroke-linecap="round" stroke-linejoin="round" d="M-52.378-39.765c-1.44.38-2.12 1.227-2.4 2.08-.28-.853-.96-1.7-2.4-2.08"/><g stroke="none"><text x="-35.829" y="-47.258" font-family="cmmi7" font-size="7" transform="translate(-34.288 2.964)">f</text><text x="-31.145" y="-50.275" font-family="cmsy5" font-size="5" transform="translate(-34.288 2.964)">¤</text><text x="-26.964" y="-47.258" font-family="cmmi7" font-size="7" transform="translate(-34.288 2.964)">p</text></g><text x="-35.829" y="-47.258" stroke="none" font-family="msam10" font-size="10" transform="translate(-7.871 -3.409)">y</text><path fill="none" d="M-11.91-57.03v21.784"/><path fill="none" stroke-linecap="round" stroke-linejoin="round" d="M-9.51-37.126c-1.44.38-2.12 1.226-2.4 2.08-.28-.854-.96-1.7-2.4-2.08"/><text x="-35.829" y="-47.258" stroke="none" font-family="cmmi7" font-size="7" transform="translate(26.271 2.146)">p</text><path fill="none" d="M-48.126-29.181h28.667"/><path fill="none" stroke-linecap="round" stroke-linejoin="round" d="M-21.339-31.581c.38 1.44 1.227 2.12 2.08 2.4-.853.28-1.7.96-2.08 2.4"/><text x="-35.829" y="-47.258" stroke="none" font-family="cmmi7" font-size="7" transform="translate(-.106 25.29)">f</text></g></svg>