<svg xmlns="http://www.w3.org/2000/svg" width="153.873" height="117.278" viewBox="-72 -72 115.405 87.958"><g stroke="#000" stroke-miterlimit="10" stroke-width=".4"><g stroke="none"><g stroke="none" font-size="10"><text x=".513" y="-98.93" font-family="cmr10" transform="translate(-68.477 37.82)">(</text><text x="4.402" y="-98.93" font-family="cmmi10" transform="translate(-68.477 37.82)">c;</text><text x="13.174" y="-98.93" font-family="cmr10" transform="translate(-68.477 37.82)">2)</text></g><g stroke="none" font-size="10"><text x="85.775" y="-98.93" font-family="cmr10" transform="translate(-68.46 37.82)">(</text><text x="89.664" y="-98.93" font-family="cmmi10" transform="translate(-68.46 37.82)">b;</text><text x="98.4" y="-98.93" font-family="cmr10" transform="translate(-68.46 37.82)">2)</text></g><g stroke="none" font-size="10"><text x=".513" y="-63.61" font-family="cmr10" transform="translate(-68.477 37.82)">(</text><text x="4.402" y="-63.61" font-family="cmmi10" transform="translate(-68.477 37.82)">c;</text><text x="13.174" y="-63.61" font-family="cmr10" transform="translate(-68.477 37.82)">1)</text></g><g stroke="none" font-size="10"><text x="43.153" y="-63.61" font-family="cmr10" transform="translate(-68.957 37.82)">(</text><text x="47.042" y="-63.61" font-family="cmmi10" transform="translate(-68.957 37.82)">a;</text><text x="56.772" y="-63.61" font-family="cmr10" transform="translate(-68.957 37.82)">2)</text></g><g stroke="none" font-size="10"><text x="85.775" y="-63.61" font-family="cmr10" transform="translate(-68.46 37.82)">(</text><text x="89.664" y="-63.61" font-family="cmmi10" transform="translate(-68.46 37.82)">b;</text><text x="98.4" y="-63.61" font-family="cmr10" transform="translate(-68.46 37.82)">1)</text></g><g stroke="none" font-size="10"><text x="43.153" y="-28.291" font-family="cmr10" transform="translate(-68.957 37.82)">(</text><text x="47.042" y="-28.291" font-family="cmmi10" transform="translate(-68.957 37.82)">a;</text><text x="56.772" y="-28.291" font-family="cmr10" transform="translate(-68.957 37.82)">1)</text></g></g><path fill="none" d="M-57.19-37.15v-17.2"/><path fill="none" stroke-linecap="round" stroke-linejoin="round" d="M-59.59-52.47c1.44-.38 2.12-1.227 2.4-2.08.28.853.96 1.7 2.4 2.08"/><path fill="none" d="m-25.243-37.15-20.946-17.345"/><path fill="none" stroke-linecap="round" stroke-linejoin="round" stroke-width=".39998" d="M-46.271-51.448c.625-1.352.407-2.415-.072-3.175.836.328 1.922.345 3.133-.522"/><path fill="none" d="m-3.86-37.15 20.936-17.345"/><path fill="none" stroke-linecap="round" stroke-linejoin="round" stroke-width=".39997600000000005" d="M14.098-55.144c1.21.866 2.297.85 3.132.521-.478.76-.697 1.824-.07 3.175"/><path fill="none" d="M28.073-37.15v-17.2"/><path fill="none" stroke-linecap="round" stroke-linejoin="round" d="M25.673-52.47c1.44-.38 2.12-1.227 2.4-2.08.28.853.96 1.7 2.4 2.08"/><path fill="none" d="m-25.243-1.831-20.946-17.345"/><path fill="none" stroke-linecap="round" stroke-linejoin="round" stroke-width=".39998" d="M-46.271-16.129c.625-1.351.407-2.415-.072-3.175.836.329 1.922.345 3.133-.521"/><path fill="none" d="M-14.55-1.831v-17.2"/><path fill="none" stroke-linecap="round" stroke-linejoin="round" d="M-16.95-17.151c1.44-.38 2.12-1.227 2.4-2.08.28.853.96 1.7 2.4 2.08"/><path fill="none" d="m-3.86-1.831 20.936-17.345"/><path fill="none" stroke-linecap="round" stroke-linejoin="round" stroke-width=".39997600000000005" d="M14.098-19.825c1.21.867 2.297.85 3.132.522-.478.76-.697 1.823-.07 3.174"/></g></svg>