<svg xmlns="http://www.w3.org/2000/svg" width="282.037" height="76.326" viewBox="-72 -72 211.528 57.244"><g stroke="#000" stroke-miterlimit="10" stroke-width=".4"><g stroke="none"><g stroke="#000"><path fill="none" d="M-27.098-64.126H-68.07a4 4 0 0 0-4 4v5.57a4 4 0 0 0 4 4h40.972a4 4 0 0 0 4-4v-5.57a4 4 0 0 0-4-4Zm-44.972 13.57"/><g stroke="none" font-family="cmr10" font-size="10"><text x="58.18" y="-80.923" transform="translate(-125.944 24.763)">a</text><text x="66.513" y="-80.923" transform="translate(-125.944 24.763)">p</text><text x="72.347" y="-80.923" transform="translate(-125.944 24.763)">erson</text></g></g><g stroke="#000"><path fill="none" d="M135.058-72.07H17.302a4 4 0 0 0-4 4v18.82a4 4 0 0 0 4 4h117.756a4 4 0 0 0 4-4v-18.82a4 4 0 0 0-4-4ZM13.302-45.25"/><g stroke="none" font-size="10"><text x="185.309" y="-85.673" font-family="cmr10" transform="translate(-164.336 24.763)">a</text><text x="193.642" y="-85.673" font-family="cmr10" transform="translate(-164.336 24.763)">pair</text><text x="214.226" y="-85.673" font-family="cmr10" transform="translate(-164.336 24.763)">(</text><text x="218.115" y="-85.673" font-family="cmmi10" transform="translate(-164.336 24.763)">w</text><text x="225.543" y="-85.673" font-family="cmmi10" transform="translate(-164.336 24.763)">;</text><text x="229.987" y="-85.673" font-family="cmmi10" transform="translate(-164.336 24.763)">m</text><text x="238.767" y="-85.673" font-family="cmr10" transform="translate(-164.336 24.763)">)</text><text x="245.99" y="-85.673" font-family="cmr10" transform="translate(-164.336 24.763)">where</text><text x="274.906" y="-85.673" font-family="cmmi10" transform="translate(-164.336 24.763)">w</text><text x="285.668" y="-85.673" font-family="cmr10" transform="translate(-164.336 24.763)">is</text><text x="183.182" y="-73.673" font-family="cmr10" transform="translate(-164.336 24.763)">a</text><text x="191.515" y="-73.673" font-family="cmr10" transform="translate(-164.336 24.763)">w</text><text x="198.459" y="-73.673" font-family="cmr10" transform="translate(-164.336 24.763)">oman</text><text x="225.682" y="-73.673" font-family="cmr10" transform="translate(-164.336 24.763)">and</text><text x="245.126" y="-73.673" font-family="cmmi10" transform="translate(-164.336 24.763)">m</text><text x="257.24" y="-73.673" font-family="cmr10" transform="translate(-164.336 24.763)">is</text><text x="267.295" y="-73.673" font-family="cmr10" transform="translate(-164.336 24.763)">a</text><text x="275.629" y="-73.673" font-family="cmr10" transform="translate(-164.336 24.763)">man</text></g></g><g stroke="#000"><path fill="none" d="M97.736-26.85H54.624a4 4 0 0 0-4 4v3.624a4 4 0 0 0 4 4h43.112a4 4 0 0 0 4-4v-3.625a4 4 0 0 0-4-4ZM50.624-15.227"/><g stroke="none" font-family="cmr10" font-size="10"><text x="181.944" y="-43.648" transform="translate(-127.014 24.763)">a</text><text x="190.277" y="-43.648" transform="translate(-127.014 24.763)">w</text><text x="197.222" y="-43.648" transform="translate(-127.014 24.763)">oman</text></g></g></g><path fill="none" d="M-22.898-58.66h35.6"/><path fill="none" stroke-linecap="round" stroke-linejoin="round" d="M10.823-61.06c.38 1.44 1.226 2.12 2.08 2.4-.854.28-1.7.96-2.08 2.4"/><g stroke="none" font-family="cmr7" font-size="7"><text x="33.494" y="-43.648" transform="translate(-63.238 -18.726)">has</text><text x="47.759" y="-43.648" transform="translate(-63.238 -18.726)">as</text><text x="57.608" y="-43.648" transform="translate(-63.238 -18.726)">paren</text><text x="76.893" y="-43.648" transform="translate(-63.238 -18.726)">ts</text></g><path fill="none" d="M-22.898-51.23 56.99-27.167"/><path fill="none" stroke-linecap="round" stroke-linejoin="round" stroke-width=".39997600000000005" d="M55.88-30.006c-.05 1.488.564 2.384 1.3 2.898-.897.022-1.904.429-2.683 1.698"/><g stroke="none" font-family="cmr7" font-size="7"><text x="33.494" y="-43.648" transform="translate(-67.502 11.721)">has</text><text x="47.759" y="-43.648" transform="translate(-67.502 11.721)">as</text><text x="57.608" y="-43.648" transform="translate(-67.502 11.721)">mother</text></g><path fill="none" d="M76.18-45.05v17.6"/><path fill="none" stroke-linecap="round" stroke-linejoin="round" d="M78.58-29.33c-1.44.38-2.12 1.226-2.4 2.08-.28-.854-.96-1.7-2.4-2.08"/><g stroke="none" font-size="7"><text x="33.494" y="-43.648" font-family="cmr7" transform="translate(45.039 9.347)">yields</text><text x="56.058" y="-43.648" font-family="cmr7" transform="translate(45.039 9.347)">as</text><text x="65.907" y="-43.648" font-family="cmmi7" transform="translate(45.039 9.347)">w</text></g></g></svg>