<svg xmlns="http://www.w3.org/2000/svg" width="123.807" height="62.135" viewBox="-72 -72 92.855 46.601"><g stroke="#000" stroke-miterlimit="10" stroke-width=".4"><g stroke="none"><text x="-18.428" y="-81.807" stroke="none" font-family="cmr10" font-size="10" transform="translate(-48.32 19.64)">1</text><text x="20.585" y="-81.807" stroke="none" font-family="cmr10" font-size="10" transform="translate(-48.32 19.64)">2</text><text x="-18.428" y="-48.969" stroke="none" font-family="cmr10" font-size="10" transform="translate(-48.32 19.64)">3</text><g stroke="none"><text x="20.585" y="-48.969" font-family="cmr10" font-size="10" transform="translate(-49.722 19.64)">3</text><text x="25.585" y="-52.598" font-family="cmsy7" font-size="7" transform="translate(-49.722 19.64)">0</text></g><text x="59.599" y="-48.969" stroke="none" font-family="cmr10" font-size="10" transform="translate(-48.32 19.64)">4</text></g><path fill="none" d="M-57.242-64.666h24.603"/><path fill="none" stroke-linecap="round" stroke-linejoin="round" d="M-34.52-67.066c.38 1.44 1.227 2.12 2.08 2.4-.853.28-1.7.96-2.08 2.4"/><text x="-25.234" y="-48.969" stroke="none" font-family="cmmi7" font-size="7" transform="translate(-21.676 -18.05)">a</text><path fill="none" d="M-64.248-58.306v18.273"/><path fill="none" stroke-linecap="round" stroke-linejoin="round" d="M-61.848-41.913c-1.44.38-2.12 1.227-2.4 2.08-.28-.853-.96-1.7-2.4-2.08"/><text x="-25.234" y="-48.969" stroke="none" font-family="cmmi7" font-size="7" transform="translate(-44.883 2.43)">b</text><path fill="none" d="m-57.242-58.77 23.294 19.61"/><path fill="none" stroke-linecap="round" stroke-linejoin="round" stroke-width=".39998" d="M-33.84-42.206c-.638 1.346-.428 2.411.045 3.175-.833-.335-1.919-.36-3.137.497"/><text x="-25.234" y="-48.969" stroke="none" font-family="cmmi7" font-size="7" transform="translate(-17.856 -2.22)">c</text><path fill="none" d="M-25.234-58.306v17.2"/><path fill="none" stroke-linecap="round" stroke-linejoin="round" d="M-22.834-42.986c-1.44.38-2.12 1.227-2.4 2.08-.28-.853-.96-1.7-2.4-2.08"/><text x="-25.234" y="-48.969" stroke="none" font-family="cmmi7" font-size="7" transform="translate(2.353 .97)">e</text><path fill="none" d="M-18.228-66.543c13.741-3.682 13.741 7.436.386 3.857"/><path fill="none" stroke-linecap="round" stroke-linejoin="round" stroke-width=".399992" d="M-16.648-59.881c.006-1.49-.636-2.365-1.387-2.856.896-.05 1.89-.488 2.63-1.78"/><text x="-25.234" y="-48.969" stroke="none" font-family="cmmi7" font-size="7" transform="translate(19.664 -13.266)">d</text></g></svg>