<svg xmlns="http://www.w3.org/2000/svg" width="73.417" height="50.23" viewBox="-72 -72 55.062 37.673"><g stroke="#000" stroke-miterlimit="10" stroke-width=".4"><g stroke="none"><text x="-37.509" y="-54.35" stroke="none" font-family="cmsy10" font-size="10" transform="translate(-30.456 3.417)">C</text><text x="2.022" y="-54.35" stroke="none" font-family="cmsy10" font-size="10" transform="translate(-31.527 3.417)">D</text></g><path fill="none" d="M-57.61-58.634c7.396-5.537 15.867-5.806 23.265-.969"/><path fill="none" stroke-linecap="round" stroke-linejoin="round" stroke-width=".399984" d="M-34.605-62.64c-.47 1.413-.133 2.446.427 3.147-.867-.233-1.948-.127-3.054.87"/><text x="-44.739" y="-54.35" stroke="none" font-family="cmmi7" font-size="7" transform="translate(-3.94 -10.984)">L</text><text x="-44.739" y="-54.35" stroke="none" font-family="cmsy10" font-size="10" transform="translate(-4.96 4.389)">?</text><path fill="none" d="M-34.01-47.483c-7.733 5.056-16.204 4.786-23.28-.51"/><path fill="none" stroke-linecap="round" stroke-linejoin="round" stroke-width=".399984" d="M-57.223-44.946c.558-1.38.288-2.432-.227-3.168.85.288 1.936.25 3.103-.674"/><text x="-44.739" y="-54.35" stroke="none" font-family="cmmi7" font-size="7" transform="translate(-4.228 17.6)">R</text></g></svg>