<svg xmlns="http://www.w3.org/2000/svg" width="101.964" height="70.185" viewBox="-72 -72 76.473 52.639"><g stroke="#000" stroke-miterlimit="10" stroke-width=".4"><g stroke="none"><text x="-29.385" y="-81.27" stroke="none" font-family="cmmi10" font-size="10" transform="translate(-36.339 20.16)">a</text><g stroke="none" font-size="10"><text x="16.311" y="-81.27" font-family="cmmi10" transform="translate(-44.137 20.16)">F</text><text x="24.13" y="-81.27" font-family="cmr10" transform="translate(-44.137 20.16)">(</text><text x="28.019" y="-81.27" font-family="cmmi10" transform="translate(-44.137 20.16)">a</text><text x="33.305" y="-81.27" font-family="cmr10" transform="translate(-44.137 20.16)">)</text></g><text x="-29.385" y="-45.951" stroke="none" font-family="cmmi10" font-size="10" transform="translate(-35.841 20.16)">b</text><g stroke="none" font-size="10"><text x="16.311" y="-45.951" font-family="cmmi10" transform="translate(-43.64 20.16)">F</text><text x="24.13" y="-45.951" font-family="cmr10" transform="translate(-43.64 20.16)">(</text><text x="28.019" y="-45.951" font-family="cmmi10" transform="translate(-43.64 20.16)">b</text><text x="32.311" y="-45.951" font-family="cmr10" transform="translate(-43.64 20.16)">)</text></g></g><path fill="none" d="M-63.08-57.25v20.255"/><path fill="none" stroke-linecap="round" stroke-linejoin="round" d="M-60.68-38.875c-1.44.38-2.12 1.227-2.4 2.08-.28-.853-.96-1.7-2.4-2.08"/><text x="-36.333" y="-45.951" stroke="none" font-family="cmmi7" font-size="7" transform="translate(-33.784 .778)">f</text><path fill="none" d="M-55.632-63.61h22.9"/><path fill="none" stroke-linecap="round" d="M-55.732-61.97v-3.28"/><path fill="none" stroke-linecap="round" stroke-linejoin="round" d="M-34.612-66.01c.38 1.44 1.227 2.12 2.08 2.4-.853.28-1.7.96-2.08 2.4"/><path fill="none" d="M-17.385-54.75v17.2"/><path fill="none" stroke-linecap="round" stroke-linejoin="round" d="M-14.985-39.43c-1.44.38-2.12 1.226-2.4 2.08-.28-.854-.96-1.7-2.4-2.08"/><g stroke="none" font-size="7"><text x="-36.333" y="-45.951" font-family="cmmi7" transform="translate(21.301 1.75)">F</text><text x="-30.185" y="-45.951" font-family="cmr7" transform="translate(21.301 1.75)">(</text><text x="-27.06" y="-45.951" font-family="cmmi7" transform="translate(21.301 1.75)">f</text><text x="-22.376" y="-45.951" font-family="cmr7" transform="translate(21.301 1.75)">)</text></g><path fill="none" d="M-56.13-28.29h23.895"/><path fill="none" stroke-linecap="round" d="M-56.229-26.65v-3.28"/><path fill="none" stroke-linecap="round" stroke-linejoin="round" d="M-34.115-30.69c.38 1.44 1.227 2.12 2.08 2.4-.853.28-1.7.96-2.08 2.4"/></g></svg>