<svg xmlns="http://www.w3.org/2000/svg" width="213.605" height="84.255" viewBox="-72 -72 160.204 63.192"><g stroke="#000" stroke-miterlimit="10" stroke-width=".4"><g stroke="none"><text x="35.756" y="-82.785" stroke="none" font-family="cmr10" font-size="10" transform="translate(-94.56 23.743)">Source</text><g stroke="none" font-family="cmr10" font-size="10"><text x="139.858" y="-82.785" transform="translate(-94.421 23.743)">T</text><text x="146.247" y="-82.785" transform="translate(-94.421 23.743)">arget</text></g><g stroke="none"><text x="35.756" y="-39.688" font-family="cmr10" font-size="10" transform="translate(-103.72 23.743)">Meanings</text><text x="77.201" y="-37.244" font-family="cmmi7" font-size="7" transform="translate(-103.72 23.743)">S</text></g><g stroke="none"><text x="139.858" y="-39.688" font-family="cmr10" font-size="10" transform="translate(-103.974 23.743)">Meanings</text><text x="181.303" y="-37.244" font-family="cmmi7" font-size="7" transform="translate(-103.974 23.743)">T</text></g></g><path fill="none" d="M-25.382-61.542h65.913"/><path fill="none" stroke-linecap="round" stroke-linejoin="round" d="M38.652-63.942c.38 1.44 1.226 2.12 2.08 2.4-.854.28-1.7.96-2.08 2.4"/><text x="7.832" y="-39.688" stroke="none" font-family="cmr7" font-size="7" transform="translate(-13.363 -25.568)">compile</text><path fill="none" d="M-44.346-55.183v28.145"/><path fill="none" stroke-linecap="round" stroke-linejoin="round" d="M-41.946-28.918c-1.44.38-2.12 1.227-2.4 2.08-.28-.853-.96-1.7-2.4-2.08"/><g stroke="none"><text x="7.832" y="-39.688" font-family="cmr7" font-size="7" transform="translate(-72.14 .528)">[</text><text x="8.73" y="-39.688" font-family="cmr7" font-size="7" transform="translate(-72.14 .528)">[</text><text x="10.994" y="-39.688" font-family="cmsy7" font-size="7" transform="translate(-72.14 .528)">¡</text><text x="17.244" y="-39.688" font-family="cmr7" font-size="7" transform="translate(-72.14 .528)">]</text><text x="18.142" y="-39.688" font-family="cmr7" font-size="7" transform="translate(-72.14 .528)">]</text><text x="20.406" y="-38.683" font-family="cmmi5" font-size="5" transform="translate(-72.14 .528)">S</text></g><path fill="none" d="M59.756-53.238v26.2"/><path fill="none" stroke-linecap="round" stroke-linejoin="round" d="M62.156-28.918c-1.44.38-2.12 1.227-2.4 2.08-.28-.853-.96-1.7-2.4-2.08"/><g stroke="none"><text x="7.832" y="-39.688" font-family="cmr7" font-size="7" transform="translate(54.277 1.5)">[</text><text x="8.73" y="-39.688" font-family="cmr7" font-size="7" transform="translate(54.277 1.5)">[</text><text x="10.994" y="-39.688" font-family="cmsy7" font-size="7" transform="translate(54.277 1.5)">¡</text><text x="17.244" y="-39.688" font-family="cmr7" font-size="7" transform="translate(54.277 1.5)">]</text><text x="18.142" y="-39.688" font-family="cmr7" font-size="7" transform="translate(54.277 1.5)">]</text><text x="20.406" y="-38.683" font-family="cmmi5" font-size="5" transform="translate(54.277 1.5)">T</text></g><path fill="none" d="M-16.221-18.445h47.2"/><path fill="none" stroke-linecap="round" stroke-linejoin="round" d="M29.099-20.845c.38 1.44 1.227 2.12 2.08 2.4-.853.28-1.7.96-2.08 2.4"/><g stroke="none" font-family="cmr7" font-size="7"><text x="7.832" y="-39.688" transform="translate(-12.104 28.457)">enco</text><text x="23.561" y="-39.688" transform="translate(-12.104 28.457)">de</text></g></g></svg>