<svg xmlns="http://www.w3.org/2000/svg" width="150.375" height="73.636" viewBox="-72 -72 112.781 55.227"><g stroke="#000" stroke-miterlimit="10" stroke-width=".4"><g stroke="none"><text x="-6.33" y="-78.878" stroke="none" font-family="cmmi10" font-size="10" transform="translate(-56.6 19.835)">A</text><text x="36.88" y="-78.878" stroke="none" font-family="cmmi10" font-size="10" transform="translate(-56.893 19.835)">B</text><text x="80.271" y="-78.878" stroke="none" font-family="cmmi10" font-size="10" transform="translate(-56.78 19.835)">C</text><g stroke="none"><text x="-6.33" y="-46.04" font-family="cmmi10" font-size="10" transform="translate(-58.002 19.835)">A</text><text x="1.17" y="-49.669" font-family="cmsy7" font-size="7" transform="translate(-58.002 19.835)">0</text></g><g stroke="none"><text x="36.88" y="-46.04" font-family="cmmi10" font-size="10" transform="translate(-58.296 19.835)">B</text><text x="44.967" y="-49.669" font-family="cmsy7" font-size="7" transform="translate(-58.296 19.835)">0</text></g><g stroke="none"><text x="80.271" y="-46.04" font-family="cmmi10" font-size="10" transform="translate(-58.184 19.835)">C</text><text x="88.133" y="-49.669" font-family="cmsy7" font-size="7" transform="translate(-58.184 19.835)">0</text></g></g><path fill="none" d="M-50.924-61.542h26.005"/><path fill="none" stroke-linecap="round" stroke-linejoin="round" d="M-26.799-63.942c.38 1.44 1.227 2.12 2.08 2.4-.853.28-1.7.96-2.08 2.4"/><text x="-15.789" y="-46.04" stroke="none" font-family="cmmi7" font-size="7" transform="translate(-24.275 -19.216)">f</text><path fill="none" d="M-59.18-55.183v17.2"/><path fill="none" stroke-linecap="round" stroke-linejoin="round" d="M-56.78-39.862c-1.44.38-2.12 1.226-2.4 2.08-.28-.854-.96-1.7-2.4-2.08"/><g stroke="none"><text x="-15.789" y="-46.04" font-family="cmmi7" font-size="7" transform="translate(-54.329 1.588)">h</text><text x="-11.107" y="-45.04" font-family="cmr5" font-size="5" transform="translate(-54.329 1.588)">1</text></g><path fill="none" d="M-7.421-61.542h26.006"/><path fill="none" stroke-linecap="round" stroke-linejoin="round" d="M16.705-63.942c.38 1.44 1.226 2.12 2.08 2.4-.854.28-1.7.96-2.08 2.4"/><text x="-15.789" y="-46.04" stroke="none" font-family="cmmi7" font-size="7" transform="translate(19.494 -19.216)">g</text><path fill="none" d="M-15.97-55.183v17.2"/><path fill="none" stroke-linecap="round" stroke-linejoin="round" d="M-13.57-39.862c-1.44.38-2.12 1.226-2.4 2.08-.28-.854-.96-1.7-2.4-2.08"/><g stroke="none"><text x="-15.789" y="-46.04" font-family="cmmi7" font-size="7" transform="translate(2.172 1.588)">h</text><text x="-11.107" y="-45.04" font-family="cmr5" font-size="5" transform="translate(2.172 1.588)">2</text></g><text x="-15.789" y="-46.04" stroke="none" font-family="msam10" font-size="10" transform="translate(8.863 -4.874)">y</text><path fill="none" d="M27.421-55.183v17.2"/><path fill="none" stroke-linecap="round" stroke-linejoin="round" d="M29.821-39.862c-1.44.38-2.12 1.226-2.4 2.08-.28-.854-.96-1.7-2.4-2.08"/><g stroke="none"><text x="-15.789" y="-46.04" font-family="cmmi7" font-size="7" transform="translate(45.563 1.588)">h</text><text x="-11.107" y="-45.04" font-family="cmr5" font-size="5" transform="translate(45.563 1.588)">3</text></g><path fill="none" d="M-49.522-28.705h23.2"/><path fill="none" stroke-linecap="round" stroke-linejoin="round" d="M-28.201-31.105c.38 1.44 1.226 2.12 2.08 2.4-.854.28-1.7.96-2.08 2.4"/><g stroke="none"><text x="-15.789" y="-46.04" font-family="cmmi7" font-size="7" transform="translate(-25.627 25.484)">f</text><text x="-11.105" y="-49.058" font-family="cmsy5" font-size="5" transform="translate(-25.627 25.484)">0</text></g><path fill="none" d="M-6.018-28.705h23.2"/><path fill="none" stroke-linecap="round" stroke-linejoin="round" d="M15.302-31.105c.38 1.44 1.227 2.12 2.08 2.4-.853.28-1.7.96-2.08 2.4"/><g stroke="none"><text x="-15.789" y="-46.04" font-family="cmmi7" font-size="7" transform="translate(18.142 25.484)">g</text><text x="-11.636" y="-49.058" font-family="cmsy5" font-size="5" transform="translate(18.142 25.484)">0</text></g></g></svg>